<svg width="88" height="36" viewBox="0 0 88 36" fill="none" xmlns="http://www.w3.org/2000/svg">
<path d="M6.04228 14.5245C6.11792 13.8306 6.28407 13.2413 6.56719 12.6623C6.82945 12.126 7.04669 11.8483 7.84464 11.0294C8.60679 10.2473 8.90003 9.95336 11.1162 7.75C12.2249 6.64768 12.9685 5.90582 14.1522 4.72137C14.4666 4.40674 14.9887 3.88678 15.3124 3.56592C15.6361 3.24505 16.1988 2.6852 16.5629 2.32181C18.148 0.739934 18.2511 0.645886 18.6512 0.416285C19.1969 0.103122 19.7758 -0.0257954 20.5019 0.00423393C21.0409 0.0265268 21.3391 0.0994183 21.8029 0.322347C22.2807 0.552021 22.264 0.537648 24.126 2.31887C25.2355 3.38024 25.311 3.45258 26.1217 4.23144C26.4165 4.51465 26.8667 4.94228 27.1221 5.18174C27.3776 5.42121 27.9564 5.9731 28.4084 6.40814C28.8604 6.84318 29.4473 7.40395 29.7126 7.65427C29.9778 7.90459 30.34 8.25104 30.5174 8.42421C30.6948 8.59739 31.1771 9.06081 31.5892 9.45405C32.0013 9.84729 32.4912 10.3178 32.678 10.4997C32.8647 10.6816 33.1763 10.9786 33.3703 11.1597C34.2905 12.0189 34.8229 13.1515 34.9642 14.5506C34.9845 14.7518 34.9996 16.3278 35 18.2816C35.0006 21.8181 34.9942 21.9917 34.841 22.5901C34.6989 23.145 34.362 23.875 34.0543 24.2951C33.966 24.4157 33.0052 25.4025 31.9193 26.488C30.8333 27.5736 29.575 28.8342 29.123 29.2895C28.671 29.7448 28.0118 30.4056 27.6581 30.758C27.3044 31.1104 26.3959 32.0183 25.6394 32.7756C23.5849 34.8322 23.3586 35.0495 23.0537 35.2588C22.3226 35.7607 21.5474 35.9997 20.6508 36C19.9459 36.0002 19.3779 35.862 18.6859 35.522C18.2918 35.3284 17.9395 35.0515 17.2428 34.388C16.0288 33.2316 15.7925 33.0073 14.1522 31.4553C12.1521 29.5627 11.1981 28.6574 10.8829 28.3529C10.7552 28.2294 10.4328 27.9238 10.1665 27.6736C8.47023 26.0797 7.27339 24.9154 7.09614 24.6865C6.57837 24.0179 6.25245 23.2483 6.0877 22.3054C6.01306 21.8783 6.01059 21.7648 6.00216 18.4188C5.9953 15.6998 6.00377 14.8777 6.04228 14.5245ZM33.1115 14.7401C33.0679 14.7571 30.9387 16.9133 26.7226 21.2095C24.7414 23.2284 23.0005 24.9888 22.8539 25.1215C22.0024 25.8924 20.8636 26.2261 19.6992 26.046C18.8698 25.9177 18.2268 25.5749 17.4876 24.867C16.9227 24.326 14.7688 22.238 13.9375 21.4254C13.5042 21.002 12.7485 20.2677 12.2582 19.7938C11.7678 19.3199 11.0206 18.5933 10.5977 18.1792C10.1749 17.765 9.38674 16.9982 8.84633 16.475C8.51879 16.158 8.19129 15.8409 7.86376 15.5239C7.86065 15.9724 7.8575 16.4208 7.85439 16.8693C7.85128 17.3177 7.84811 17.7662 7.845 18.2147C7.9434 18.3108 8.04183 18.407 8.14023 18.5031C8.55859 18.9119 11.4184 21.6378 11.7062 21.9021C11.8379 22.0231 12.1849 22.3521 12.4773 22.6333C12.7697 22.9144 13.4832 23.5995 14.0629 24.1555C14.6426 24.7116 15.847 25.8675 16.7394 26.7243C18.9557 28.8521 18.9835 28.878 19.2231 29.0389C19.3394 29.1171 19.5645 29.2247 19.7233 29.2779C19.9657 29.3593 20.0749 29.3746 20.4049 29.3737C20.7381 29.3728 20.8434 29.3571 21.0964 29.2704C21.5202 29.1251 21.7629 28.9491 22.3522 28.3594C22.6372 28.0743 23.8189 26.8929 24.9783 25.734C26.1378 24.5752 27.4884 23.2221 27.9797 22.7272C28.9036 21.7965 30.5272 20.1774 32.1868 18.5314C32.5054 18.2155 32.824 17.8995 33.1426 17.5835C33.1426 17.1076 33.1426 16.6316 33.1426 16.1557C33.1426 15.3589 33.1288 14.7332 33.1115 14.7401ZM32.5472 20.7841C30.9761 22.3652 30.1974 23.1454 28.9265 24.4121C28.1699 25.1661 27.1731 26.1644 26.7112 26.6306C25.6898 27.6617 23.4354 29.91 23.199 30.1335C22.8819 30.4333 22.6226 30.6127 22.1914 30.8307C21.5252 31.1677 20.9424 31.2944 20.2131 31.2608C19.7555 31.2396 19.6185 31.2114 19.0651 31.0244C18.2987 30.7654 18.0279 30.5621 16.6354 29.1996C16.4487 29.017 15.9664 28.5532 15.5635 28.169C15.1607 27.7848 14.4613 27.1155 14.0093 26.6817C12.9568 25.6713 12.3957 25.1352 10.2556 23.0949C9.29381 22.178 8.36272 21.2871 8.1865 21.115C7.91814 20.8529 7.86376 20.814 7.85164 20.8755C7.81406 21.0659 7.87826 21.919 7.95233 22.2138C8.18057 23.1219 8.41882 23.4582 9.66861 24.6367C9.93419 24.8871 10.5281 25.4468 10.9883 25.8803C11.4485 26.3139 12.1879 27.0152 12.6313 27.4388C13.0748 27.8623 13.6547 28.4137 13.92 28.6642C14.1853 28.9146 14.6196 29.327 14.8851 29.5807C17.4464 32.0276 19.1346 33.6188 19.273 33.7167C19.6671 33.9955 20.2689 34.1542 20.7943 34.1182C21.2722 34.0854 21.682 33.9411 22.0409 33.6792C22.211 33.5551 23.1146 32.6652 25.6036 30.1707C26.3602 29.4124 28.2029 27.5671 29.6985 26.07C31.1941 24.5728 32.4854 23.2542 32.5682 23.1397C32.7574 22.8776 32.9368 22.4956 33.0375 22.1404C33.1045 21.9039 33.1178 21.7474 33.1321 21.0221C33.1376 20.741 33.1432 20.4599 33.1487 20.1788C32.9482 20.3806 32.7477 20.5823 32.5472 20.7841ZM32.0084 12.4389C31.817 12.2593 31.2824 11.7506 30.8204 11.3084C30.3585 10.8663 29.7635 10.2973 29.4982 10.044C29.2329 9.79064 28.8792 9.45042 28.7121 9.28791C28.5451 9.12541 28.1833 8.77929 27.9082 8.51874C27.6331 8.25823 27.2713 7.91229 27.1043 7.75004C26.9372 7.58779 26.5755 7.23991 26.3004 6.97694C26.0252 6.71397 25.526 6.23563 25.191 5.91396C24.8559 5.59229 24.245 5.00586 23.8332 4.61071C23.4215 4.21556 22.6703 3.4942 22.1638 3.00764C21.6574 2.52109 21.175 2.08249 21.0919 2.03299C20.7495 1.82891 20.2698 1.77651 19.8787 1.90044C19.5774 1.99596 19.425 2.10515 19.0037 2.52717C18.8114 2.71978 18.0673 3.45966 17.35 4.17138C16.6328 4.8831 15.9968 5.51724 15.9368 5.58059C15.7671 5.75989 14.5536 6.975 13.2768 8.244C12.6382 8.8788 11.8262 9.68834 11.4725 10.043C11.1187 10.3976 10.3341 11.1806 9.72889 11.7831C8.72478 12.7826 8.34611 13.2136 8.34611 13.3573C8.34611 13.3821 8.44676 13.4998 8.56974 13.619C8.69276 13.7381 9.25951 14.2896 9.82922 14.8445C11.3038 16.2806 12.0514 17.0074 12.8487 17.7799C13.2322 18.1515 14.2779 19.165 15.1725 20.0321C16.0671 20.8993 17.1518 21.947 17.5829 22.3604C18.014 22.7738 18.5302 23.2716 18.73 23.4667C19.3177 24.0402 19.6831 24.206 20.3513 24.2024C20.7613 24.2002 21.0266 24.1266 21.3739 23.9185C21.5218 23.8298 23.4343 21.9186 25.2285 20.0664C26.1456 19.1195 32.1344 13.0473 32.2404 12.9567C32.3043 12.9021 32.3566 12.8368 32.3566 12.8115C32.3566 12.7862 32.1999 12.6185 32.0084 12.4389Z" fill="#AC8D5B"/>
<path d="M13.8231 13.1427C14.4184 12.5389 15.1783 11.7725 15.5117 11.4398C15.8452 11.107 16.4555 10.4954 16.868 10.0807C17.2805 9.66598 18.2129 8.73328 18.94 8.00803C19.6671 7.28278 20.3196 6.63031 20.3899 6.55804C20.4325 6.51426 20.4751 6.47045 20.5177 6.42667C20.5764 6.48302 20.6351 6.53941 20.6938 6.59577C20.7907 6.68879 21.2885 7.16911 21.8 7.66319C22.3115 8.15726 22.851 8.677 22.999 8.81816C23.1469 8.95932 23.6517 9.44606 24.1208 9.8998C24.5898 10.3535 25.1301 10.8733 25.3214 11.0548C25.9043 11.6076 27.2025 12.8676 27.6858 13.3495C27.8379 13.5013 27.9901 13.653 28.1422 13.8047C27.928 14.0261 27.7137 14.2476 27.4995 14.469C27.2852 14.6904 27.071 14.9119 26.8567 15.1333C26.7223 15.0045 26.5879 14.8757 26.4535 14.7469C25.8267 14.1463 25.5582 13.8871 24.9054 13.2523C24.5721 12.9284 24.1226 12.4927 23.9065 12.2842C23.6903 12.0757 22.8644 11.2766 22.0711 10.5083C21.2778 9.74005 20.6052 9.09752 20.5763 9.08043C20.5149 9.04402 20.6892 8.87433 17.608 11.9697C16.8543 12.7269 16.1006 13.4841 15.3469 14.2413C15.3919 14.286 15.437 14.3306 15.482 14.3753C15.7218 14.6131 17.882 16.7205 18.6199 17.4365C19.0137 17.8186 19.7436 18.5273 20.242 19.0113C20.7403 19.4953 21.2702 20.0096 21.4196 20.1543C21.5102 20.242 21.6007 20.3297 21.6912 20.4174C21.4769 20.6384 21.2626 20.8593 21.0484 21.0802C20.6948 21.4448 20.3952 21.7389 20.3827 21.7338C20.3595 21.7244 19.6799 21.0636 16.8846 18.3329C16.0279 17.496 14.7451 16.2437 14.0339 15.55C13.3228 14.8563 12.7409 14.2778 12.7409 14.2646C12.7409 14.2514 13.2279 13.7466 13.8231 13.1427Z" fill="#AC8D5B"/>
<path d="M47.792 11.24C48.4427 11.3787 48.9653 11.704 49.36 12.216C49.7547 12.7173 49.952 13.2933 49.952 13.944C49.952 14.8827 49.6213 15.6293 48.96 16.184C48.3093 16.728 47.3973 17 46.224 17H40.992V5.768H46.048C47.1893 5.768 48.08 6.02933 48.72 6.552C49.3707 7.07467 49.696 7.784 49.696 8.68C49.696 9.34133 49.52 9.89067 49.168 10.328C48.8267 10.7653 48.368 11.0693 47.792 11.24ZM43.728 10.312H45.52C45.968 10.312 46.3093 10.216 46.544 10.024C46.7893 9.82133 46.912 9.528 46.912 9.144C46.912 8.76 46.7893 8.46667 46.544 8.264C46.3093 8.06133 45.968 7.96 45.52 7.96H43.728V10.312ZM45.744 14.792C46.2027 14.792 46.5547 14.6907 46.8 14.488C47.056 14.2747 47.184 13.9707 47.184 13.576C47.184 13.1813 47.0507 12.872 46.784 12.648C46.528 12.424 46.1707 12.312 45.712 12.312H43.728V14.792H45.744ZM55.0749 7.96V10.232H58.7389V12.344H55.0749V14.808H59.2189V17H52.3389V5.768H59.2189V7.96H55.0749ZM65.8591 17.112C65.0378 17.112 64.3018 16.9787 63.6511 16.712C63.0005 16.4453 62.4778 16.0507 62.0831 15.528C61.6991 15.0053 61.4965 14.376 61.4751 13.64H64.3871C64.4298 14.056 64.5738 14.376 64.8191 14.6C65.0645 14.8133 65.3845 14.92 65.7791 14.92C66.1845 14.92 66.5045 14.8293 66.7391 14.648C66.9738 14.456 67.0911 14.1947 67.0911 13.864C67.0911 13.5867 66.9951 13.3573 66.8031 13.176C66.6218 12.9947 66.3925 12.8453 66.1151 12.728C65.8485 12.6107 65.4645 12.4773 64.9631 12.328C64.2378 12.104 63.6458 11.88 63.1871 11.656C62.7285 11.432 62.3338 11.1013 62.0031 10.664C61.6725 10.2267 61.5071 9.656 61.5071 8.952C61.5071 7.90667 61.8858 7.09067 62.6431 6.504C63.4005 5.90667 64.3871 5.608 65.6031 5.608C66.8405 5.608 67.8378 5.90667 68.5951 6.504C69.3525 7.09067 69.7578 7.912 69.8111 8.968H66.8511C66.8298 8.60533 66.6965 8.32267 66.4511 8.12C66.2058 7.90667 65.8911 7.8 65.5071 7.8C65.1765 7.8 64.9098 7.89067 64.7071 8.072C64.5045 8.24267 64.4031 8.49333 64.4031 8.824C64.4031 9.18667 64.5738 9.46933 64.9151 9.672C65.2565 9.87467 65.7898 10.0933 66.5151 10.328C67.2405 10.5733 67.8271 10.808 68.2751 11.032C68.7338 11.256 69.1285 11.5813 69.4591 12.008C69.7898 12.4347 69.9551 12.984 69.9551 13.656C69.9551 14.296 69.7898 14.8773 69.4591 15.4C69.1391 15.9227 68.6698 16.3387 68.0511 16.648C67.4325 16.9573 66.7018 17.112 65.8591 17.112ZM80.5189 5.768V7.96H77.5429V17H74.8069V7.96H71.8309V5.768H80.5189Z" fill="white"/>
<path d="M49.552 24.384C49.552 25.0347 49.4027 25.632 49.104 26.176C48.8053 26.7093 48.3467 27.1413 47.728 27.472C47.1093 27.8027 46.3413 27.968 45.424 27.968H43.728V32H40.992V20.768H45.424C46.32 20.768 47.0773 20.9227 47.696 21.232C48.3147 21.5413 48.7787 21.968 49.088 22.512C49.3973 23.056 49.552 23.68 49.552 24.384ZM45.216 25.792C45.7387 25.792 46.128 25.6693 46.384 25.424C46.64 25.1787 46.768 24.832 46.768 24.384C46.768 23.936 46.64 23.5893 46.384 23.344C46.128 23.0987 45.7387 22.976 45.216 22.976H43.728V25.792H45.216ZM54.5124 29.888H58.0964V32H51.7764V20.768H54.5124V29.888ZM69.8334 20.768L65.9454 28.288V32H63.2094V28.288L59.3214 20.768H62.4254L64.6014 25.472L66.7614 20.768H69.8334Z" fill="white"/>
<path d="M69.3867 27.6816H70.2832V32H69.3867V27.6816ZM70.7449 31.127H71.6326V32H70.7449V31.127ZM76.023 32H74.8629L73.5299 30.1133L73.0992 30.5557V32H72.2115V27.6816H73.0992V29.46L74.7662 27.6816H75.9322L74.1627 29.46L76.023 32ZM76.1508 31.127H77.0385V32H76.1508V31.127ZM80.6086 30.1133H78.5109V31.2236H80.9016V32H77.6291V27.6816H80.7961V28.4463H78.5109V29.3633H80.6086V30.1133ZM81.2227 31.127H82.1104V32H81.2227V31.127Z" fill="white"/>
</svg>
