<svg width="77" height="36" viewBox="0 0 77 36" fill="none" xmlns="http://www.w3.org/2000/svg">
<path d="M0.0422839 14.5245C0.117924 13.8306 0.284067 13.2413 0.56719 12.6623C0.829447 12.126 1.04669 11.8483 1.84464 11.0294C2.60679 10.2473 2.90003 9.95336 5.11621 7.75C6.22494 6.64768 6.96855 5.90582 8.15221 4.72137C8.46663 4.40674 8.98871 3.88678 9.31239 3.56592C9.63607 3.24505 10.1988 2.6852 10.5629 2.32181C12.148 0.739934 12.2511 0.645886 12.6512 0.416285C13.1969 0.103122 13.7758 -0.0257954 14.5019 0.00423393C15.0409 0.0265268 15.3391 0.0994183 15.8029 0.322347C16.2807 0.552021 16.264 0.537648 18.126 2.31887C19.2355 3.38024 19.311 3.45258 20.1217 4.23144C20.4165 4.51465 20.8667 4.94228 21.1221 5.18174C21.3776 5.42121 21.9564 5.9731 22.4084 6.40814C22.8604 6.84318 23.4473 7.40395 23.7126 7.65427C23.9778 7.90459 24.34 8.25104 24.5174 8.42421C24.6948 8.59739 25.1771 9.06081 25.5892 9.45405C26.0013 9.84729 26.4912 10.3178 26.678 10.4997C26.8647 10.6816 27.1763 10.9786 27.3703 11.1597C28.2905 12.0189 28.8229 13.1515 28.9642 14.5506C28.9845 14.7518 28.9996 16.3278 29 18.2816C29.0006 21.8181 28.9942 21.9917 28.841 22.5901C28.6989 23.145 28.362 23.875 28.0543 24.2951C27.966 24.4157 27.0052 25.4025 25.9193 26.488C24.8333 27.5736 23.575 28.8342 23.123 29.2895C22.671 29.7448 22.0118 30.4056 21.6581 30.758C21.3044 31.1104 20.3959 32.0183 19.6394 32.7756C17.5849 34.8322 17.3586 35.0495 17.0537 35.2588C16.3226 35.7607 15.5474 35.9997 14.6508 36C13.9459 36.0002 13.3779 35.862 12.6859 35.522C12.2918 35.3284 11.9395 35.0515 11.2428 34.388C10.0288 33.2316 9.79249 33.0073 8.15221 31.4553C6.15205 29.5627 5.19806 28.6574 4.88293 28.3529C4.75519 28.2294 4.43284 27.9238 4.16654 27.6736C2.47023 26.0797 1.27339 24.9154 1.09614 24.6865C0.578374 24.0179 0.252447 23.2483 0.0876964 22.3054C0.0130568 21.8783 0.010592 21.7648 0.0021598 18.4188C-0.00470033 15.6998 0.00376714 14.8777 0.0422839 14.5245ZM27.1115 14.7401C27.0679 14.7571 24.9387 16.9133 20.7226 21.2095C18.7414 23.2284 17.0005 24.9888 16.8539 25.1215C16.0024 25.8924 14.8636 26.2261 13.6992 26.046C12.8698 25.9177 12.2268 25.5749 11.4876 24.867C10.9227 24.326 8.7688 22.238 7.93747 21.4254C7.50421 21.002 6.74852 20.2677 6.25817 19.7938C5.76781 19.3199 5.02059 18.5933 4.59773 18.1792C4.17487 17.765 3.38674 16.9982 2.84633 16.475C2.51879 16.158 2.19129 15.8409 1.86376 15.5239C1.86065 15.9724 1.8575 16.4208 1.85439 16.8693C1.85128 17.3177 1.84811 17.7662 1.845 18.2147C1.9434 18.3108 2.04183 18.407 2.14023 18.5031C2.55859 18.9119 5.41845 21.6378 5.70618 21.9021C5.83791 22.0231 6.18492 22.3521 6.4773 22.6333C6.76968 22.9144 7.48317 23.5995 8.06288 24.1555C8.6426 24.7116 9.84702 25.8675 10.7394 26.7243C12.9557 28.8521 12.9835 28.878 13.2231 29.0389C13.3394 29.1171 13.5645 29.2247 13.7233 29.2779C13.9657 29.3593 14.0749 29.3746 14.4049 29.3737C14.7381 29.3728 14.8434 29.3571 15.0964 29.2704C15.5202 29.1251 15.7629 28.9491 16.3522 28.3594C16.6372 28.0743 17.8189 26.8929 18.9783 25.734C20.1378 24.5752 21.4884 23.2221 21.9797 22.7272C22.9036 21.7965 24.5272 20.1774 26.1868 18.5314C26.5054 18.2155 26.824 17.8995 27.1426 17.5835C27.1426 17.1076 27.1426 16.6316 27.1426 16.1557C27.1426 15.3589 27.1288 14.7332 27.1115 14.7401ZM26.5472 20.7841C24.9761 22.3652 24.1974 23.1454 22.9265 24.4121C22.1699 25.1661 21.1731 26.1644 20.7112 26.6306C19.6898 27.6617 17.4354 29.91 17.199 30.1335C16.8819 30.4333 16.6226 30.6127 16.1914 30.8307C15.5252 31.1677 14.9424 31.2944 14.2131 31.2608C13.7555 31.2396 13.6185 31.2114 13.0651 31.0244C12.2987 30.7654 12.0279 30.5621 10.6354 29.1996C10.4487 29.017 9.96639 28.5532 9.56354 28.169C9.16068 27.7848 8.46127 27.1155 8.00929 26.6817C6.95676 25.6713 6.39573 25.1352 4.25558 23.0949C3.29381 22.178 2.36272 21.2871 2.1865 21.115C1.91814 20.8529 1.86376 20.814 1.85164 20.8755C1.81406 21.0659 1.87826 21.919 1.95233 22.2138C2.18057 23.1219 2.41882 23.4582 3.66861 24.6367C3.93419 24.8871 4.52806 25.4468 4.98826 25.8803C5.44849 26.3139 6.18785 27.0152 6.63133 27.4388C7.07477 27.8623 7.65467 28.4137 7.91996 28.6642C8.18526 28.9146 8.61955 29.327 8.8851 29.5807C11.4464 32.0276 13.1346 33.6188 13.273 33.7167C13.6671 33.9955 14.2689 34.1542 14.7943 34.1182C15.2722 34.0854 15.682 33.9411 16.0409 33.6792C16.211 33.5551 17.1146 32.6652 19.6036 30.1707C20.3602 29.4124 22.2029 27.5671 23.6985 26.07C25.1941 24.5728 26.4854 23.2542 26.5682 23.1397C26.7574 22.8776 26.9368 22.4956 27.0375 22.1404C27.1045 21.9039 27.1178 21.7474 27.1321 21.0221C27.1376 20.741 27.1432 20.4599 27.1487 20.1788C26.9482 20.3806 26.7477 20.5823 26.5472 20.7841ZM26.0084 12.4389C25.817 12.2593 25.2824 11.7506 24.8204 11.3084C24.3585 10.8663 23.7635 10.2973 23.4982 10.044C23.2329 9.79064 22.8792 9.45042 22.7121 9.28791C22.5451 9.12541 22.1833 8.77929 21.9082 8.51874C21.6331 8.25823 21.2713 7.91229 21.1043 7.75004C20.9372 7.58779 20.5755 7.23991 20.3004 6.97694C20.0252 6.71397 19.526 6.23563 19.191 5.91396C18.8559 5.59229 18.245 5.00586 17.8332 4.61071C17.4215 4.21556 16.6703 3.4942 16.1638 3.00764C15.6574 2.52109 15.175 2.08249 15.0919 2.03299C14.7495 1.82891 14.2698 1.77651 13.8787 1.90044C13.5774 1.99596 13.425 2.10515 13.0037 2.52717C12.8114 2.71978 12.0673 3.45966 11.35 4.17138C10.6328 4.8831 9.99683 5.51724 9.93684 5.58059C9.76713 5.75989 8.55356 6.975 7.27683 8.244C6.63816 8.8788 5.8262 9.68834 5.47247 10.043C5.11874 10.3976 4.33412 11.1806 3.72889 11.7831C2.72478 12.7826 2.34611 13.2136 2.34611 13.3573C2.34611 13.3821 2.44676 13.4998 2.56974 13.619C2.69276 13.7381 3.25951 14.2896 3.82922 14.8445C5.30375 16.2806 6.05136 17.0074 6.84867 17.7799C7.2322 18.1515 8.27794 19.165 9.17255 20.0321C10.0671 20.8993 11.1518 21.947 11.5829 22.3604C12.014 22.7738 12.5302 23.2716 12.73 23.4667C13.3177 24.0402 13.6831 24.206 14.3513 24.2024C14.7613 24.2002 15.0266 24.1266 15.3739 23.9185C15.5218 23.8298 17.4343 21.9186 19.2285 20.0664C20.1456 19.1195 26.1344 13.0473 26.2404 12.9567C26.3043 12.9021 26.3566 12.8368 26.3566 12.8115C26.3566 12.7862 26.1999 12.6185 26.0084 12.4389Z" fill="#AC8D5B"/>
<path d="M7.82313 13.1428C8.41839 12.539 9.17826 11.7726 9.51173 11.4399C9.84519 11.1071 10.4555 10.4955 10.868 10.0808C11.2805 9.66608 12.2129 8.73337 12.94 8.00812C13.6671 7.28287 14.3196 6.6304 14.3899 6.55813C14.4325 6.51435 14.4751 6.47054 14.5177 6.42676C14.5764 6.48311 14.6351 6.53951 14.6938 6.59586C14.7907 6.68888 15.2885 7.1692 15.8 7.66328C16.3115 8.15735 16.851 8.67709 16.999 8.81825C17.1469 8.95941 17.6517 9.44615 18.1208 9.89989C18.5898 10.3536 19.1301 10.8734 19.3214 11.0549C19.9043 11.6077 21.2025 12.8677 21.6858 13.3496C21.8379 13.5014 21.9901 13.6531 22.1422 13.8048C21.928 14.0262 21.7137 14.2477 21.4995 14.4691C21.2852 14.6905 21.071 14.912 20.8567 15.1334C20.7223 15.0046 20.5879 14.8758 20.4535 14.747C19.8267 14.1463 19.5582 13.8872 18.9054 13.2524C18.5721 12.9285 18.1226 12.4928 17.9065 12.2843C17.6903 12.0758 16.8644 11.2767 16.0711 10.5084C15.2778 9.74014 14.6052 9.09761 14.5763 9.08052C14.5149 9.04411 14.6892 8.87442 11.608 11.9698C10.8543 12.727 10.1006 13.4842 9.3469 14.2414C9.39192 14.286 9.43698 14.3307 9.48203 14.3754C9.72182 14.6132 11.882 16.7206 12.6199 17.4366C13.0137 17.8187 13.7436 18.5274 14.242 19.0114C14.7403 19.4953 15.2702 20.0097 15.4196 20.1544C15.5102 20.2421 15.6007 20.3298 15.6912 20.4175C15.4769 20.6385 15.2626 20.8594 15.0484 21.0803C14.6948 21.4449 14.3952 21.739 14.3827 21.7339C14.3595 21.7245 13.6799 21.0637 10.8846 18.333C10.0279 17.4961 8.7451 16.2438 8.03394 15.5501C7.32277 14.8563 6.74088 14.2779 6.74088 14.2647C6.74088 14.2515 7.22791 13.7467 7.82313 13.1428Z" fill="#AC8D5B"/>
<path d="M41.792 11.24C42.4427 11.3787 42.9653 11.704 43.36 12.216C43.7547 12.7173 43.952 13.2933 43.952 13.944C43.952 14.8827 43.6213 15.6293 42.96 16.184C42.3093 16.728 41.3973 17 40.224 17H34.992V5.768H40.048C41.1893 5.768 42.08 6.02933 42.72 6.552C43.3707 7.07467 43.696 7.784 43.696 8.68C43.696 9.34133 43.52 9.89067 43.168 10.328C42.8267 10.7653 42.368 11.0693 41.792 11.24ZM37.728 10.312H39.52C39.968 10.312 40.3093 10.216 40.544 10.024C40.7893 9.82133 40.912 9.528 40.912 9.144C40.912 8.76 40.7893 8.46667 40.544 8.264C40.3093 8.06133 39.968 7.96 39.52 7.96H37.728V10.312ZM39.744 14.792C40.2027 14.792 40.5547 14.6907 40.8 14.488C41.056 14.2747 41.184 13.9707 41.184 13.576C41.184 13.1813 41.0507 12.872 40.784 12.648C40.528 12.424 40.1707 12.312 39.712 12.312H37.728V14.792H39.744ZM49.0749 7.96V10.232H52.7389V12.344H49.0749V14.808H53.2189V17H46.3389V5.768H53.2189V7.96H49.0749ZM59.8591 17.112C59.0378 17.112 58.3018 16.9787 57.6511 16.712C57.0005 16.4453 56.4778 16.0507 56.0831 15.528C55.6991 15.0053 55.4965 14.376 55.4751 13.64H58.3871C58.4298 14.056 58.5738 14.376 58.8191 14.6C59.0645 14.8133 59.3845 14.92 59.7791 14.92C60.1845 14.92 60.5045 14.8293 60.7391 14.648C60.9738 14.456 61.0911 14.1947 61.0911 13.864C61.0911 13.5867 60.9951 13.3573 60.8031 13.176C60.6218 12.9947 60.3925 12.8453 60.1151 12.728C59.8485 12.6107 59.4645 12.4773 58.9631 12.328C58.2378 12.104 57.6458 11.88 57.1871 11.656C56.7285 11.432 56.3338 11.1013 56.0031 10.664C55.6725 10.2267 55.5071 9.656 55.5071 8.952C55.5071 7.90667 55.8858 7.09067 56.6431 6.504C57.4005 5.90667 58.3871 5.608 59.6031 5.608C60.8405 5.608 61.8378 5.90667 62.5951 6.504C63.3525 7.09067 63.7578 7.912 63.8111 8.968H60.8511C60.8298 8.60533 60.6965 8.32267 60.4511 8.12C60.2058 7.90667 59.8911 7.8 59.5071 7.8C59.1765 7.8 58.9098 7.89067 58.7071 8.072C58.5045 8.24267 58.4031 8.49333 58.4031 8.824C58.4031 9.18667 58.5738 9.46933 58.9151 9.672C59.2565 9.87467 59.7898 10.0933 60.5151 10.328C61.2405 10.5733 61.8271 10.808 62.2751 11.032C62.7338 11.256 63.1285 11.5813 63.4591 12.008C63.7898 12.4347 63.9551 12.984 63.9551 13.656C63.9551 14.296 63.7898 14.8773 63.4591 15.4C63.1391 15.9227 62.6698 16.3387 62.0511 16.648C61.4325 16.9573 60.7018 17.112 59.8591 17.112ZM74.5189 5.768V7.96H71.5429V17H68.8069V7.96H65.8309V5.768H74.5189Z" fill="#AC8D5B"/>
<path d="M43.552 24.384C43.552 25.0347 43.4027 25.632 43.104 26.176C42.8053 26.7093 42.3467 27.1413 41.728 27.472C41.1093 27.8027 40.3413 27.968 39.424 27.968H37.728V32H34.992V20.768H39.424C40.32 20.768 41.0773 20.9227 41.696 21.232C42.3147 21.5413 42.7787 21.968 43.088 22.512C43.3973 23.056 43.552 23.68 43.552 24.384ZM39.216 25.792C39.7387 25.792 40.128 25.6693 40.384 25.424C40.64 25.1787 40.768 24.832 40.768 24.384C40.768 23.936 40.64 23.5893 40.384 23.344C40.128 23.0987 39.7387 22.976 39.216 22.976H37.728V25.792H39.216ZM48.5124 29.888H52.0964V32H45.7764V20.768H48.5124V29.888ZM63.8334 20.768L59.9454 28.288V32H57.2094V28.288L53.3214 20.768H56.4254L58.6014 25.472L60.7614 20.768H63.8334Z" fill="#AC8D5B"/>
<path d="M63.3867 27.6816H64.2832V32H63.3867V27.6816ZM64.7449 31.127H65.6326V32H64.7449V31.127ZM70.023 32H68.8629L67.5299 30.1133L67.0992 30.5557V32H66.2115V27.6816H67.0992V29.46L68.7662 27.6816H69.9322L68.1627 29.46L70.023 32ZM70.1508 31.127H71.0385V32H70.1508V31.127ZM74.6086 30.1133H72.5109V31.2236H74.9016V32H71.6291V27.6816H74.7961V28.4463H72.5109V29.3633H74.6086V30.1133ZM75.2227 31.127H76.1104V32H75.2227V31.127Z" fill="#AC8D5B"/>
</svg>
